<?xml version="1.0"?>
<svg xmlns="http://www.w3.org/2000/svg" id="Capa_1" enable-background="new 0 0 512 512" height="512px" viewBox="0 0 512 512" width="512px"><g><path d="m445.561 308.324c-114.302-14.831-197.193 59.857-189.222 167.733l86.443-86.309 21.196 21.23-86.056 85.923c107.78 4.647 182.568-73.243 168.527-180.812z" fill="#FFFFFF"/><path d="m226.394 446.545c1.192-16.298 4.258-32.007 9.164-46.863-25.21-35.635-70.634-55.076-125.375-47.973l-.688 6.008c-10.361 79.375 41.793 137.863 118.984 139.987-.012-.1-.855-7.419-.872-7.553l-56.705-56.617 21.196-21.229z" fill="#FFFFFF"/><path d="m376.394 14.297c-60.443 0-94.275 28.618-121.355 73.676-27.349-46.071-60.02-73.676-119.573-73.676-74.697 0-135.466 60.39-135.466 134.62 0 56.096 23.245 112.253 74.566 178.496l31.758-5.455c53.628-6.96 106.817 7.419 142.781 46.81 35.756-64.225 109.667-101.957 200.317-90.194l19.668 2.552c28.818-46.619 42.91-90.128 42.91-132.209 0-74.23-60.833-134.62-135.606-134.62zm-67.935 240h-37.459v37.443h-30v-37.443h-37.459v-30h37.459v-37.443h30v37.443h37.459z" fill="#FFFFFF"/></g></svg>
