<?xml version="1.0"?>
<svg xmlns="http://www.w3.org/2000/svg" id="Layer_1" enable-background="new 0 0 512 512" height="512px" viewBox="0 0 512 512" width="512px"><g><path d="m286 240h-206-14c-36.393 0-66 29.607-66 66v92c0 36.393 29.607 66 66 66h220c36.393 0 66-29.607 66-66v-30-62c0-36.393-29.607-66-66-66zm-110 168c-30.878 0-56-25.122-56-56s25.122-56 56-56 56 25.122 56 56-25.122 56-56 56z" fill="#FFFFFF"/><path d="m446 48h-220c-33.833 0-61.783 25.593-65.548 58.434-.34 2.965 1.992 5.566 4.977 5.566h200.571c54.124 0 98 43.876 98 98v52.468c0 3.56 3.615 5.978 6.91 4.63 24.078-9.849 41.09-33.517 41.09-61.098v-92c0-36.451-29.549-66-66-66z" fill="#FFFFFF"/><path d="m366 144h-220c-33.833 0-61.783 25.593-65.548 58.434-.34 2.965 1.992 5.566 4.977 5.566h200.571c54.124 0 98 43.876 98 98v52.468c0 3.56 3.615 5.978 6.91 4.63 24.078-9.849 41.09-33.517 41.09-61.098v-92c0-36.451-29.549-66-66-66z" fill="#FFFFFF"/></g></svg>
