<svg xmlns="http://www.w3.org/2000/svg" width="73" height="72" viewBox="0 0 73 72" fill="none"><path d="M53 72.0029C42.248 72.0029 33.5 63.2549 33.5 52.5029C33.5 41.7509 42.248 33.0029 53 33.0029C63.752 33.0029 72.5 41.7509 72.5 52.5029C72.5 63.2549 63.752 72.0029 53 72.0029ZM53 36.0029C43.901 36.0029 36.5 43.4039 36.5 52.5029C36.5 61.6019 43.901 69.0029 53 69.0029C62.099 69.0029 69.5 61.6019 69.5 52.5029C69.5 43.4039 62.099 36.0029 53 36.0029Z" fill="#111111"></path><path d="M50.5018 61.2896C49.6858 61.2896 48.9088 61.0286 48.2518 60.5366C48.1138 60.4346 47.9788 60.3176 47.8528 60.1916L43.3528 55.6916C42.7678 55.1066 42.7678 54.1556 43.3528 53.5706C43.6348 53.2886 44.0128 53.1326 44.4148 53.1326C44.8168 53.1326 45.1918 53.2886 45.4768 53.5706L49.9768 58.0706C50.0008 58.0946 50.0278 58.1156 50.0548 58.1366C50.1898 58.2356 50.3428 58.2896 50.5048 58.2896C50.5408 58.2896 50.5768 58.2866 50.6158 58.2806C50.8198 58.2506 50.9908 58.1516 51.1138 57.9866L59.8288 46.3676C60.1108 45.9926 60.5578 45.7676 61.0288 45.7676C61.3558 45.7676 61.6648 45.8696 61.9288 46.0676C62.2498 46.3076 62.4598 46.6586 62.5168 47.0576C62.5738 47.4536 62.4718 47.8496 62.2318 48.1706L53.5168 59.7896C52.9138 60.5936 52.0348 61.1096 51.0418 61.2536C50.8558 61.2776 50.6788 61.2896 50.5018 61.2896Z" fill="#0c7ed6"></path><path d="M5 56.9999C2.519 56.9999 0.5 54.9809 0.5 52.4999V10.4999C0.5 8.01893 2.519 5.99993 5 5.99993H15.5V1.50293C15.5 0.67493 16.172 0.00292969 17 0.00292969C17.828 0.00292969 18.5 0.67493 18.5 1.50293V5.99993H45.5V1.50293C45.5 0.67493 46.172 0.00292969 47 0.00292969C47.828 0.00292969 48.5 0.67493 48.5 1.50293V5.99993H59C61.481 5.99993 63.5 8.01893 63.5 10.4999V29.9999C63.5 30.8279 62.828 31.4999 62 31.4999C61.172 31.4999 60.5 30.8279 60.5 29.9999V24.0029H3.5V52.4999C3.5 53.3279 4.172 53.9999 5 53.9999H29C29.828 53.9999 30.5 54.6719 30.5 55.4999C30.5 56.3279 29.828 56.9999 29 56.9999H5ZM60.5 21.0029V10.4999C60.5 9.67193 59.828 8.99993 59 8.99993H48.5V16.5029C48.5 17.3309 47.828 18.0029 47 18.0029C46.172 18.0029 45.5 17.3309 45.5 16.5029V8.99993H18.5V16.5029C18.5 17.3309 17.828 18.0029 17 18.0029C16.172 18.0029 15.5 17.3309 15.5 16.5029V8.99993H5C4.172 8.99993 3.5 9.67193 3.5 10.4999V21.0029H60.5Z" fill="#111111"></path></svg>