<?xml version="1.0" encoding="utf-8"?>
<!-- Generator: Adobe Illustrator 19.0.0, SVG Export Plug-In . SVG Version: 6.00 Build 0)  -->
<svg version="1.1" id="Layer_1" focusable="false" xmlns="http://www.w3.org/2000/svg" xmlns:xlink="http://www.w3.org/1999/xlink"
	 x="0px" y="0px" width="100px" height="100px" viewBox="-255 347 100 100" style="enable-background:new -255 347 100 100;"
	 xml:space="preserve">
<style type="text/css">
	.st0{fill:#231F20;}
</style>
<path class="st0" d="M-202.961792,428.7364807l-18.8748169-0.3451843
	c-6.1112823-0.1202698-12.2377472,0.1198425-18.2291718-1.1264038c-9.1143188-1.8619385-9.7600098-10.9914856-10.4356689-18.6494446
	c-0.9309692-10.7661438-0.5705719-21.7276917,1.1862946-32.4039307c0.9918213-5.9905396,4.8950043-9.565094,10.9311371-9.9540405
	c20.3763733-1.4116821,40.8882294-1.2444153,61.2194519-0.5857849c2.1472473,0.0603638,4.3092194,0.3903198,6.4264984,0.7659607
	c10.4513702,1.8319702,10.7062073,12.1777954,11.383728,20.8870239c0.6756134,8.7991028,0.3903656,17.6433716-0.9010315,26.3825378
	c-1.0360565,7.2358398-3.0182953,13.303772-11.3837128,13.8895264c-10.481308,0.7659912-20.7220459,1.3826599-31.2328339,1.1862793
	C-202.87146,428.7364807-202.9318237,428.7364807-202.961792,428.7364807z M-214.0583649,410.4174805
	c7.8985443-4.5350342,15.6463776-8.9945374,23.4997406-13.4991455c-7.9132843-4.5350647-15.6463776-8.9945068-23.4997406-13.4991455
	V410.4174805z"/>
</svg>
