<?xml version="1.0" encoding="utf-8"?>
<!-- Generator: Adobe Illustrator 19.0.0, SVG Export Plug-In . SVG Version: 6.00 Build 0)  -->
<svg version="1.1" id="Layer_1" focusable="false" xmlns="http://www.w3.org/2000/svg" xmlns:xlink="http://www.w3.org/1999/xlink"
	 x="0px" y="0px" width="100px" height="100px" viewBox="-255 347 100 100" style="enable-background:new -255 347 100 100;"
	 xml:space="preserve">
<style type="text/css">
	.st0{fill:#f15a24;}
</style>
<path class="st0" d="M-176.6923218,351.000061h-56.6153259c-9.8291321,0-17.6923523,7.8632202-17.6923523,17.6923523v56.6152344
	c0,9.8291321,7.8632202,17.6922913,17.6923523,17.6922913h56.6153259c9.8290405,0,17.6923218-7.8631592,17.6923218-17.6922913
	v-56.6152954c0-9.829071-7.8633423-17.6922913-17.6923523-17.6922913H-176.6923218z M-171.581192,361.6154175h1.965744v15.7264709
	h-15.7264862v-15.7264709H-171.581192z M-217.9742889,387.5641785c2.7520752-3.9316711,7.8631897-6.6838074,12.9743195-6.6838074
	c5.1111145,0,10.2222595,2.7521362,12.97435,6.6838074c1.965744,2.7520752,3.1452789,5.8973999,3.1452789,9.4358826
	c0,9.0426331-7.4700775,16.1195679-16.1196289,16.1195679c-8.6495819,0-16.1196136-7.0768738-16.1196136-16.1195679
	C-221.1196594,393.4615784-219.9401245,390.3162537-217.9742889,387.5641785z M-168.0427399,425.3076477
	c0,4.7180176-3.9316711,8.6496582-8.6495819,8.6496582h-56.6153259c-4.7179413,0-8.6496124-3.9316406-8.6496124-8.6496582
	v-37.7434692h13.7606354c-1.1795044,2.7520752-1.965744,6.2905579-1.965744,9.4358826
	c0,13.7606201,11.4016876,25.162323,25.1623383,25.162323s25.1623383-11.4017029,25.1623383-25.162323
	c0-3.1453247-0.786377-6.6838684-1.965744-9.4358826h13.7605896L-168.0427399,425.3076477z"/>
</svg>
