<?xml version="1.0" encoding="utf-8"?>
<!-- Generator: Adobe Illustrator 19.0.0, SVG Export Plug-In . SVG Version: 6.00 Build 0)  -->
<svg version="1.1" id="Layer_1" xmlns="http://www.w3.org/2000/svg" xmlns:xlink="http://www.w3.org/1999/xlink" x="0px" y="0px"
	 width="1794.7388916px" height="982.4203491px" viewBox="591 -94.8682861 1794.7388916 982.4203491"
	 style="enable-background:new 591 -94.8682861 1794.7388916 982.4203491;" xml:space="preserve">
<style type="text/css">
	.st0{fill:url(#SVGID_1_);}
</style>
<linearGradient id="SVGID_1_" gradientUnits="userSpaceOnUse" x1="702.0593872" y1="-285.6185913" x2="2473.112793" y2="736.8996582" gradientTransform="matrix(1 0 0 -1 0 793.3674316)">
	<stop  offset="0" style="stop-color:#a6ddc4"/>
	<stop  offset="1" style="stop-color:#69a88d"/>
</linearGradient>
<path class="st0" d="M2385.7387695-94.8682861c-57.6577148,48.6095238-111.3955078,81.9688416-150.5744629,103.6665497
	c-45.6166992,25.2630501-70.8481445,34.3592987-99.0097656,39.1681633
	c-16.1013184,2.7494698-59.0637207,8.5205879-126.0126953-6.9120369
	c-100.1331787-23.0820732-106.0126953-59.5016594-183.0183105-82.9443054
	c-116.5919189-35.4938011-237.0626221,7.2171173-255.0253906,13.824028
	c-88.5913086,32.584877-134.7276611,87.8547897-171.0172119,131.3285217
	c-57.9650879,69.4404602-52.769043,104.9051056-126.0125732,179.7126465
	c-35.7258301,36.4886169-53.5887451,54.7329712-84.0084229,71.4242554
	c-140.9432373,77.3354492-297.4178467-14.7769165-471.0469971,50.6881714
	C685.1582031,418.2293396,637.3376465,442.348938,591,490.3360291v396.2895203
	c21.5678711,1.2235107,54.2009277,1.8850708,93.0092773-2.3040161
	c182.4475098-19.6941528,220.855957-116.3161621,351.6762695-136.9328003
	c143.4232178-22.6028442,180.1624756,80.4672241,358.4821777,77.1726074
	c148.6500244-2.7463989,206.9868164-75.9207764,332.9833984-118.6385498
	c127.333252-43.1710205,329.4643555-57.1578369,658.5876465,69.9046021V-94.8682861z"/>
</svg>
