<svg xmlns="http://www.w3.org/2000/svg" width="72" height="72" viewBox="0 0 72 72" fill="none"><g clip-path="url(#clip0_6219_34728)"><path d="M70.4997 72C69.6717 72 68.9997 71.328 68.9997 70.5V64.5C68.9997 58.71 64.2897 54 58.4997 54H49.4997C48.6717 54 47.9997 53.328 47.9997 52.5V34.5C47.9997 32.847 46.6557 31.5 44.9997 31.5C43.3437 31.5 41.9997 32.847 41.9997 34.5V63.978C41.9997 64.608 41.6007 65.175 41.0097 65.388C40.8477 65.448 40.6737 65.478 40.4997 65.478C40.0557 65.478 39.6327 65.28 39.3477 64.938L32.3097 56.46C31.7397 55.776 30.8967 55.383 29.9997 55.383C29.3007 55.383 28.6197 55.629 28.0827 56.076C27.4677 56.589 27.0867 57.312 27.0147 58.11C26.9427 58.908 27.1857 59.688 27.6987 60.306L35.6427 69.525C35.9037 69.828 36.0327 70.215 36.0027 70.614C35.9727 71.013 35.7897 71.379 35.4867 71.64C35.2047 71.871 34.8597 72 34.4997 72C34.0617 72 33.6477 71.811 33.3627 71.478L25.4037 62.241C24.3657 60.993 23.8767 59.433 24.0237 57.834C24.1707 56.238 24.9297 54.792 26.1597 53.766C27.2337 52.872 28.5957 52.38 29.9967 52.38C31.7877 52.38 33.4707 53.166 34.6137 54.54L38.9997 59.823V34.5C38.9997 31.191 41.6907 28.5 44.9997 28.5C48.3087 28.5 50.9997 31.191 50.9997 34.5V51H58.4997C65.9427 51 71.9997 57.057 71.9997 64.5V70.5C71.9997 71.328 71.3277 72 70.4997 72Z" fill="#111111"></path><path d="M4.5 66C2.019 66 0 63.981 0 61.5V10.5C0 8.019 2.019 6 4.5 6H37.5C39.981 6 42 8.019 42 10.5V24C42 24.828 41.328 25.5 40.5 25.5C39.672 25.5 39 24.828 39 24V10.5C39 9.672 38.328 9 37.5 9H4.5C3.672 9 3 9.672 3 10.5V61.5C3 62.328 3.672 63 4.5 63H18C18.828 63 19.5 63.672 19.5 64.5C19.5 65.328 18.828 66 18 66H4.5Z" fill="#111111"></path><path d="M46.5 25.5C45.672 25.5 45 24.828 45 24V4.5C45 3.672 44.328 3 43.5 3H9C8.172 3 7.5 2.328 7.5 1.5C7.5 0.672 8.172 0 9 0H43.5C45.981 0 48 2.019 48 4.5V24C48 24.828 47.328 25.5 46.5 25.5Z" fill="#111111"></path><path d="M10.5 48C9.672 48 9 47.328 9 46.5C9 45.672 9.672 45 10.5 45H31.5C32.328 45 33 45.672 33 46.5C33 47.328 32.328 48 31.5 48H10.5Z" fill="#0299f6"></path><path d="M21 28.5C17.277 28.5 14.25 25.473 14.25 21.75C14.25 18.027 17.277 15 21 15C24.723 15 27.75 18.027 27.75 21.75C27.75 25.473 24.723 28.5 21 28.5ZM21 18C18.933 18 17.25 19.683 17.25 21.75C17.25 23.817 18.933 25.5 21 25.5C23.067 25.5 24.75 23.817 24.75 21.75C24.75 19.683 23.067 18 21 18Z" fill="#0299f6"></path><path d="M10.4997 38.9998C10.0317 38.9998 9.59965 38.7868 9.31465 38.4208C9.03265 38.0578 8.93065 37.5748 9.04765 37.1308C10.1637 32.7538 13.5777 29.3428 17.9517 28.2268C18.9597 27.9688 19.9917 27.8398 21.0207 27.8398C23.2167 27.8398 25.3857 28.4398 27.2966 29.5738C30.1287 31.2568 32.1387 33.9418 32.9517 37.1338C33.0657 37.5778 32.9637 38.0608 32.6817 38.4238C32.3997 38.7868 31.9677 38.9998 31.4997 38.9998H10.4997ZM29.3547 35.9998C28.5627 34.4008 27.3386 33.0808 25.7667 32.1478C24.3207 31.2898 22.6797 30.8368 21.0177 30.8368C20.2407 30.8368 19.4577 30.9358 18.6927 31.1308C16.0467 31.8058 13.8537 33.5908 12.6507 35.9998H29.3547Z" fill="#0299f6"></path></g><defs><clipPath id="clip0_6219_34728"><rect width="72" height="72" fill="white"></rect></clipPath></defs></svg>