<?xml version="1.0" encoding="utf-8"?>
<!-- Generator: Adobe Illustrator 19.0.0, SVG Export Plug-In . SVG Version: 6.00 Build 0)  -->
<svg version="1.1" id="Layer_1" focusable="false" xmlns="http://www.w3.org/2000/svg" xmlns:xlink="http://www.w3.org/1999/xlink"
	 x="0px" y="0px" width="100px" height="100px" viewBox="-255 347 100 100" style="enable-background:new -255 347 100 100;"
	 xml:space="preserve">
<style type="text/css">
	.st0{fill:#231F20;}
</style>
<path class="st0" d="M-161.6189575,361.2840576c-2.6730957,1.7121887-8.8105164,4.2003174-11.8373108,4.2003174v0.0050964
	c-3.456131-3.6104431-8.3219147-5.8644714-13.7182312-5.8644714c-10.480835,0-18.979599,8.4987793-18.979599,18.9754944
	c0,1.4556885,0.1686707,2.8755188,0.4804382,4.2371216h-0.0030823c-14.2170563-0.3730774-29.766098-7.4990234-39.1265717-19.6951599
	c-5.7551117,9.9615479-0.7748413,21.0403748,5.756134,25.0771484c-2.2355804,0.1686707-6.3510437-0.2575989-8.2881927-2.1476746
	c-0.1298218,6.6117249,3.0492859,15.3721924,14.6412811,18.5502625c-2.2325287,1.2011108-6.1844177,0.8566284-7.9027863,0.6011047
	c0.6031189,5.5812988,8.4190063,12.8779602,16.9658356,12.8779602c-3.0462341,3.5235901-14.50737,9.9145203-27.3689575,7.8813171
	c8.7348633,5.3144836,18.9152069,8.3924255,29.6904297,8.3924255c30.6206665,0,54.4006195-24.8164673,53.1207886-55.4310303
	c-0.0050964-0.0337219-0.0050964-0.0674744-0.0081635-0.1042786c0.003067-0.0787048,0.0081635-0.1574097,0.0081635-0.2391968
	c0-0.0950928-0.0081635-0.1849976-0.0112305-0.2770081c2.7876129-1.9064636,6.5279083-5.2787476,9.2000122-9.7172241
	c-1.5496979,0.8535461-6.1987762,2.5626831-10.5247955,2.9869385
	C-166.7484436,370.0946045-162.6350403,365.1868896-161.6189575,361.2840576"/>
</svg>
