<svg xmlns="http://www.w3.org/2000/svg" width="73" height="72" viewBox="0 0 73 72" fill="none"><g clip-path="url(#clip0_6219_34715)"><path d="M41.0312 32.9912C40.2033 32.9912 39.5312 32.3192 39.5312 31.4912V14.9912C39.5312 14.1632 40.2033 13.4912 41.0312 13.4912C41.8593 13.4912 42.5312 14.1632 42.5312 14.9912V29.9912H56.0312C56.8592 29.9912 57.5312 30.6632 57.5312 31.4912C57.5312 32.3192 56.8592 32.9912 56.0312 32.9912H41.0312Z" fill="#0c7ed6"></path><path d="M59.2531 54.5913C58.7731 54.5913 58.3201 54.3603 58.0381 53.9703C57.8011 53.6433 57.7081 53.2473 57.7711 52.8513C57.8341 52.4553 58.0501 52.1073 58.3741 51.8733C68.0011 44.9043 71.9221 32.6553 68.1301 21.3903C65.8291 14.5563 61.0051 9.02428 54.5461 5.81728C50.7631 3.93928 46.7341 2.98828 42.5671 2.98828C39.6451 2.98828 36.7381 3.46828 33.9271 4.41328C19.8181 9.16228 12.2011 24.5073 16.9501 38.6163C17.2141 39.3993 16.7911 40.2513 16.0081 40.5183C15.8521 40.5693 15.6901 40.5963 15.5311 40.5963C14.8861 40.5963 14.3131 40.1853 14.1091 39.5763C8.83209 23.8953 17.2921 6.84628 32.9701 1.56928C36.0901 0.519281 39.3181 -0.0117188 42.5671 -0.0117188C47.1961 -0.0117188 51.6751 1.04428 55.8781 3.13228C63.0571 6.69628 68.4151 12.8403 70.9741 20.4333C75.1861 32.9493 70.8301 46.5603 60.1291 54.3063C59.8741 54.4923 59.5681 54.5913 59.2531 54.5913Z" fill="#111111"></path><path d="M2.02734 71.9941C1.19934 71.9941 0.527344 71.3221 0.527344 70.4941V40.4941C0.527344 39.6661 1.19934 38.9941 2.02734 38.9941C2.85534 38.9941 3.52734 39.6661 3.52734 40.4941V44.9911H23.0273C28.2473 44.9911 32.6843 48.8911 33.4193 53.9911H50.0273C55.8173 53.9911 60.5273 58.7011 60.5273 64.4911C60.5273 65.3191 59.8553 65.9911 59.0273 65.9911H3.52734V70.4941C3.52734 71.3191 2.85534 71.9941 2.02734 71.9941ZM57.3773 62.9911C56.6723 59.5681 53.5943 56.9911 50.0303 56.9911H32.0963C32.0753 56.9941 32.0513 56.9941 32.0333 56.9941H23.0333C22.2053 56.9941 21.5333 56.3221 21.5333 55.4941C21.5333 54.6661 22.2053 53.9941 23.0333 53.9941H30.3773C29.6753 50.5681 26.5943 47.9911 23.0333 47.9911H3.53334V62.9911H57.3773Z" fill="#111111"></path></g><defs><clipPath id="clip0_6219_34715"><rect width="72" height="72" fill="white" transform="translate(0.5)"></rect></clipPath></defs></svg>